<svg width="24" height="24" viewBox="0 0 24 24" fill="none" xmlns="http://www.w3.org/2000/svg">
<path d="M5 1C5 0.734784 5.10536 0.48043 5.29289 0.292893C5.48043 0.105357 5.73478 0 6 0L18 0C18.2652 0 18.5196 0.105357 18.7071 0.292893C18.8946 0.48043 19 0.734784 19 1C19 1.26522 18.8946 1.51957 18.7071 1.70711C18.5196 1.89464 18.2652 2 18 2H17V7H7V2H6C5.73478 2 5.48043 1.89464 5.29289 1.70711C5.10536 1.51957 5 1.26522 5 1V1ZM7 9V19C7 20.3261 7.52678 21.5979 8.46447 22.5355C9.40215 23.4732 10.6739 24 12 24C13.3261 24 14.5979 23.4732 15.5355 22.5355C16.4732 21.5979 17 20.3261 17 19V9H7Z" fill="#09D1E3"/>
</svg>
