<svg width="20" height="24" viewBox="0 0 20 24" fill="none" xmlns="http://www.w3.org/2000/svg">
<path d="M9.981 0C7.33494 0.00291109 4.79808 1.05528 2.92694 2.92623C1.05579 4.79718 0.00317621 7.33394 0 9.98C0 12.55 1.99 16.572 5.915 21.934C6.38226 22.5741 6.99406 23.0949 7.7006 23.4539C8.40715 23.8129 9.18847 24 9.981 24C10.7735 24 11.5549 23.8129 12.2614 23.4539C12.9679 23.0949 13.5797 22.5741 14.047 21.934C17.972 16.572 19.962 12.55 19.962 9.98C19.9588 7.33394 18.9062 4.79718 17.0351 2.92623C15.1639 1.05528 12.6271 0.00291109 9.981 0ZM9.981 13.958C9.18987 13.958 8.41652 13.7234 7.75872 13.2839C7.10092 12.8444 6.58823 12.2196 6.28548 11.4887C5.98273 10.7578 5.90352 9.95356 6.05786 9.17764C6.2122 8.40172 6.59316 7.68898 7.15257 7.12957C7.71198 6.57016 8.42472 6.1892 9.20064 6.03486C9.97656 5.88052 10.7808 5.95973 11.5117 6.26248C12.2426 6.56523 12.8674 7.07792 13.3069 7.73572C13.7464 8.39352 13.981 9.16687 13.981 9.958C13.981 11.0189 13.5596 12.0363 12.8094 12.7864C12.0593 13.5366 11.0419 13.958 9.981 13.958Z" fill="#09D1E3"/>
</svg>
