<svg width="24" height="24" viewBox="0 0 24 24" fill="none" xmlns="http://www.w3.org/2000/svg">
<path d="M15.477 18.6099C15.477 17.3269 14.669 16.5809 13.12 15.2659C12.77 14.9659 12.392 14.6479 12.002 14.2939C11.557 14.7029 11.134 15.0629 10.746 15.3939C9.20001 16.6999 8.52301 17.3389 8.52301 18.6099C8.52301 19.5321 8.88934 20.4165 9.5414 21.0686C10.1935 21.7206 11.0779 22.0869 12 22.0869C12.9222 22.0869 13.8066 21.7206 14.4586 21.0686C15.1107 20.4165 15.477 19.5321 15.477 18.6099V18.6099Z" fill="#09D1E3"/>
<path d="M16.408 4.035C15.208 3.016 13.968 1.963 12.714 0.71L12 0L11.3 0.711C9.04599 2.973 7.97999 6.447 7.51799 8.531C7.16348 7.98206 6.90039 7.37922 6.73899 6.746L6.31199 5.109L5.07899 6.266C2.91999 8.294 1.47899 10.305 1.47899 13.525C1.45823 15.8485 2.21455 18.1123 3.62778 19.9568C5.04101 21.8012 7.03009 23.1205 9.27899 23.705C9.84407 23.8482 10.4195 23.9468 11 24C9.74127 23.7654 8.60409 23.0983 7.78512 22.1141C6.96615 21.1299 6.51687 19.8904 6.51499 18.61C6.51499 16.36 7.87199 15.21 9.44299 13.868C10.004 13.391 10.643 12.85 11.288 12.201L12 11.493L12.708 12.201C13.284 12.777 13.86 13.265 14.417 13.739C15.993 15.076 17.481 16.339 17.481 18.61C17.4794 19.8853 17.0337 21.1203 16.2206 22.1028C15.4074 23.0853 14.2775 23.754 13.025 23.994C15.6255 23.7417 18.0389 22.5298 19.7943 20.5946C21.5498 18.6594 22.5215 16.1398 22.52 13.527C22.52 9.225 19.687 6.82 16.408 4.035Z" fill="#09D1E3"/>
</svg>
