<svg width="24" height="24" viewBox="0 0 22 24" fill="none" xmlns="http://www.w3.org/2000/svg">
<path d="M15.408 4.035C14.208 3.016 12.968 1.963 11.714 0.71L11 0L10.3 0.711C8.04599 2.973 6.97999 6.447 6.51799 8.531C6.16348 7.98206 5.90039 7.37922 5.73899 6.746L5.31199 5.109L4.07899 6.266C1.91999 8.294 0.478993 10.305 0.478993 13.525C0.458234 15.8485 1.21455 18.1123 2.62778 19.9568C4.04101 21.8012 6.03009 23.1205 8.27899 23.705C8.84407 23.8482 9.4195 23.9468 9.99999 24C8.74127 23.7654 7.60409 23.0983 6.78512 22.1141C5.96615 21.1299 5.51687 19.8904 5.51499 18.61C5.51499 16.36 6.87199 15.21 8.44299 13.868C9.00399 13.391 9.64299 12.85 10.288 12.201L11 11.493L11.708 12.201C12.284 12.777 12.86 13.265 13.417 13.739C14.993 15.076 16.481 16.339 16.481 18.61C16.4794 19.8853 16.0337 21.1203 15.2206 22.1028C14.4074 23.0853 13.2775 23.754 12.025 23.994C14.6255 23.7417 17.0389 22.5298 18.7943 20.5946C20.5498 18.6594 21.5215 16.1398 21.52 13.527C21.52 9.225 18.687 6.82 15.408 4.035Z" fill="white"/>
</svg>
