<svg width="32" height="32" viewBox="0 0 32 32" fill="none" xmlns="http://www.w3.org/2000/svg">
<path d="M15 11L11 28" stroke="white" stroke-width="3" stroke-linecap="round" stroke-linejoin="round"/>
<path d="M7.69308 19.5692C6.82316 18.2716 6.26934 16.7882 6.07602 15.238C5.88269 13.6878 6.05523 12.1139 6.57982 10.6424C7.1044 9.17085 7.96642 7.84271 9.0968 6.76439C10.2272 5.68608 11.5945 4.88758 13.089 4.43291C14.5836 3.97825 16.1639 3.88005 17.7033 4.1462C19.2427 4.41235 20.6983 5.03544 21.9535 5.96553C23.2087 6.89561 24.2285 8.10682 24.9312 9.50207C25.6339 10.8973 25.9999 12.4378 26 14C26 19.5228 22 23 18 23C14 23 12.7961 20.3667 12.7961 20.3667" stroke="white" stroke-width="3" stroke-linecap="round" stroke-linejoin="round"/>
</svg>
