<svg width="24" height="24" viewBox="0 0 24 24" fill="none" xmlns="http://www.w3.org/2000/svg">
<g clip-path="url(#clip0_7_36168)">
<path d="M23.7 1.71899L5.17902 20.235C5.57941 20.4302 6.0186 20.5327 6.46402 20.535H9.63602C9.76738 20.5346 9.89752 20.5604 10.0189 20.6106C10.1402 20.6609 10.2504 20.7348 10.343 20.828L12.062 22.546C12.5236 23.0107 13.0724 23.3796 13.677 23.6316C14.2816 23.8835 14.93 24.0135 15.585 24.014C16.1312 24.0135 16.6736 23.924 17.191 23.749C18.0654 23.4623 18.8421 22.9369 19.4336 22.232C20.025 21.5271 20.4076 20.6709 20.538 19.76L23.917 3.70999C24.0783 3.04128 24.0016 2.33726 23.7 1.71899V1.71899Z" fill="#374957"/>
<path d="M20.32 0.0769654L4.30903 3.44997C3.38697 3.57664 2.51857 3.95817 1.80157 4.55159C1.08458 5.14501 0.547444 5.92678 0.250632 6.8089C-0.0461796 7.69103 -0.0908882 8.63848 0.121539 9.54463C0.333966 10.4508 0.795095 11.2797 1.45303 11.938L3.17103 13.656C3.26401 13.7489 3.33775 13.8593 3.38803 13.9808C3.4383 14.1023 3.46413 14.2325 3.46403 14.364V17.536C3.46634 17.9814 3.56887 18.4206 3.76403 18.821L22.282 0.299965C21.6735 0.000936449 20.9801 -0.0778719 20.32 0.0769654V0.0769654Z" fill="#374957"/>
</g>
<defs>
<clipPath id="clip0_7_36168">
<rect width="24" height="24" fill="white"/>
</clipPath>
</defs>
</svg>
